<?xml version="1.0" encoding="UTF-8" standalone="no"?>
<!DOCTYPE svg PUBLIC "-//W3C//DTD SVG 20010904//EN"
              "http://www.w3.org/TR/2001/REC-SVG-20010904/DTD/svg10.dtd">

<svg xmlns="http://www.w3.org/2000/svg"
     width="5.68889in" height="5.68889in"
     viewBox="0 0 512 512">
  <path id="Selection #1"
        fill="none" stroke="black" stroke-width="1"
        d="M 130.21,341.79
           C 125.35,336.92 124.75,328.50 123.58,322.00
             123.58,322.00 116.40,283.00 116.40,283.00
             116.40,283.00 89.00,134.00 89.00,134.00
             89.00,134.00 82.08,96.00 82.08,96.00
             81.50,92.59 79.10,78.30 77.83,76.13
             75.51,72.16 64.49,68.73 60.00,67.05
             60.00,67.05 23.00,52.60 23.00,52.60
             18.53,50.81 8.47,47.26 5.19,44.45
             0.68,40.58 -0.21,35.64 0.04,30.00
             0.53,19.24 7.88,14.60 18.00,15.04
             24.16,15.31 34.95,20.18 41.00,22.60
             41.00,22.60 83.00,39.19 83.00,39.19
             90.02,41.91 101.94,45.21 106.58,51.04
             110.32,55.72 112.00,69.64 113.08,76.00
             113.08,76.00 122.08,125.00 122.08,125.00
             122.08,125.00 145.42,252.00 145.42,252.00
             145.42,252.00 151.80,287.00 151.80,287.00
             153.21,294.31 155.85,305.94 156.00,313.00
             156.00,313.00 415.00,313.00 415.00,313.00
             415.00,313.00 421.98,290.00 421.98,290.00
             421.98,290.00 438.66,238.00 438.66,238.00
             438.66,238.00 462.67,163.00 462.67,163.00
             462.67,163.00 473.00,132.00 473.00,132.00
             473.00,132.00 439.00,131.00 439.00,131.00
             439.00,131.00 416.00,130.00 416.00,130.00
             416.00,130.00 393.00,129.00 393.00,129.00
             393.00,129.00 378.00,128.00 378.00,128.00
             378.00,128.00 321.00,126.00 321.00,126.00
             321.00,126.00 311.00,125.04 311.00,125.04
             311.00,125.04 298.00,125.04 298.00,125.04
             298.00,125.04 283.00,124.00 283.00,124.00
             283.00,124.00 260.00,123.00 260.00,123.00
             260.00,123.00 237.00,122.00 237.00,122.00
             237.00,122.00 205.00,121.00 205.00,121.00
             205.00,121.00 191.00,120.00 191.00,120.00
             182.95,119.96 173.71,121.09 167.04,115.61
             156.54,106.98 159.18,86.24 179.00,86.00
             179.00,86.00 204.00,87.00 204.00,87.00
             204.00,87.00 257.00,89.00 257.00,89.00
             257.00,89.00 280.00,90.00 280.00,90.00
             280.00,90.00 295.00,91.04 295.00,91.04
             295.00,91.04 308.00,91.04 308.00,91.04
             308.00,91.04 320.00,92.04 320.00,92.04
             320.00,92.04 332.00,92.04 332.00,92.04
             332.00,92.04 344.00,93.00 344.00,93.00
             344.00,93.00 373.00,94.00 373.00,94.00
             373.00,94.00 396.00,95.00 396.00,95.00
             396.00,95.00 411.00,96.00 411.00,96.00
             411.00,96.00 443.00,97.00 443.00,97.00
             443.00,97.00 466.00,98.00 466.00,98.00
             466.00,98.00 481.00,99.00 481.00,99.00
             491.46,99.12 507.33,97.19 511.35,110.00
             513.48,116.78 510.81,125.54 508.67,132.00
             508.67,132.00 498.67,163.00 498.67,163.00
             498.67,163.00 457.67,291.00 457.67,291.00
             457.67,291.00 446.33,326.00 446.33,326.00
             444.44,331.69 443.25,338.24 438.67,342.47
             433.94,346.84 429.02,346.99 423.00,347.00
             423.00,347.00 189.00,347.00 189.00,347.00
             186.24,347.01 182.71,346.67 180.50,348.60
             178.19,350.61 176.38,357.00 175.31,360.00
             175.31,360.00 166.00,387.00 166.00,387.00
             166.00,387.00 423.00,387.00 423.00,387.00
             427.52,387.01 432.05,386.87 435.90,389.70
             442.50,394.55 442.74,406.17 436.79,411.61
             431.48,416.46 419.95,415.00 413.00,415.00
             419.09,422.22 422.28,428.70 423.92,438.00
             425.53,447.19 425.42,451.91 423.10,461.00
             421.66,466.68 418.53,473.28 415.07,478.00
             408.07,487.59 395.80,495.00 384.00,496.85
             384.00,496.85 371.00,496.85 371.00,496.85
             350.60,496.76 332.87,481.14 327.21,462.00
             325.09,454.82 324.84,448.33 325.87,441.00
             327.36,430.36 330.46,423.54 337.00,415.00
             337.00,415.00 232.00,415.00 232.00,415.00
             236.88,420.44 239.64,424.99 241.80,432.00
             246.82,448.36 243.75,466.77 232.68,480.00
             216.03,499.88 183.15,503.30 163.00,486.67
             157.00,481.72 153.20,476.92 149.76,470.00
             144.97,460.36 144.88,454.41 145.00,444.00
             145.15,431.63 149.76,424.98 156.00,415.00
             156.00,415.00 146.00,415.00 146.00,415.00
             134.98,414.85 129.22,407.91 131.52,397.00
             131.52,397.00 149.00,347.00 149.00,347.00
             141.96,347.00 135.64,347.22 130.21,341.79 Z
           M 174.92,439.00
           C 168.64,452.27 178.49,467.89 193.00,468.90
             216.42,470.53 224.79,437.85 203.00,428.21
             199.66,426.73 196.61,426.25 193.00,426.34
             184.75,427.76 178.66,431.08 174.92,439.00 Z
           M 356.53,437.00
           C 348.66,450.73 358.38,467.95 374.00,468.91
             397.71,470.36 404.87,436.78 383.00,427.93
             379.33,426.44 376.90,426.09 373.00,426.31
             365.97,427.64 360.21,430.58 356.53,437.00 Z" />
</svg>
